/* XPM */
static char *Brick100[] = {
/* columns rows colors chars-per-pixel */
"100 100 65 1 ",
"  c #443F3B",
". c #493F38",
"X c #46413D",
"o c #4B433E",
"O c #54463E",
"+ c #58473F",
"@ c #57483F",
"# c #58483F",
"$ c #4C4642",
"% c #4E4945",
"& c #4F4A48",
"* c #524741",
"= c #544A43",
"- c #5C4D44",
"; c #544D4A",
": c #5B4F48",
"> c #5F5047",
", c #56514D",
"< c #5C514B",
"1 c #5C5652",
"2 c #5E5956",
"3 c #604F46",
"4 c #625047",
"5 c #695347",
"6 c #64534A",
"7 c #6A564C",
"8 c #67584F",
"9 c #6D594E",
"0 c #715A4F",
"q c #615751",
"w c #645A54",
"e c #6D5B52",
"r c #645D5A",
"t c #695F59",
"y c #735D52",
"u c #66605D",
"i c #6B625C",
"p c #766155",
"a c #796356",
"s c #73645C",
"d c #7C6559",
"f c #7D685C",
"g c #6B6562",
"h c #6E6864",
"j c #6F6A68",
"k c #726761",
"l c #726A65",
"z c #7A6B63",
"x c #746D69",
"c c #786F69",
"v c #7F7067",
"b c #77706D",
"n c #7A716D",
"m c #7C7571",
"M c #816656",
"N c #856857",
"B c #886A57",
"V c #80675A",
"C c #826A5D",
"Z c #856E61",
"A c #827269",
"S c #817772",
"D c #847A74",
"F c #887E77",
"G c #897E78",
/* pixels */
"1uggggggggghggrrrrriglggghhxbbmnnnnmmmxxgklxcmxlw11gcnAxbbnmxxgrixxhiuuruslbxmbnmbmbbnxgkugggggxgr,,",
"ruiisskssissstqttqeiskspsssfzZzzzzzzAzkzzzkzzzzxgurzdfzskkszksiqussuqtwteuszzkkzlzzzzlksktstskskkurr",
"u6554697799y96-56449e5965955959y97779yyyyy0y90ykgwwe77554366766-->4-43----47588597eyyye767646909eegu",
"966667959eyyy96996569986866467555777799y09y999yyw1w66753333677644>446664>:-46468577799e9676799998tgu",
"y096679yyyyyy990096685665954467957979yyyy90099yew187753=-33644778657664#-4666666666757776677977776wt",
"yyye99ypaaayy09009597645566-3679574779y0yy7099yyw2q763#OO-:44679999956--56664664664667677467777q64qt",
"999999ypayy00099y95999588786579546447599999e9y9e12q64---O=:466699y9y565>69646466664466677749777664:4",
"6555576yyy009999095694566577e9997644750009999yyetrq434:-O3667667eyyye7>696995>:454-4666679y47764:41q",
"e5775599ay0009995549566909p00p0097797959y099999er1q:-:-:-359767799e966-5777754##33344666795446444qww",
"ee7y099900y00y997560746900ppppp07777677y0y00900yr16:3--444497777765664446777644>33-=--4487-::46444ww",
"76655790000yyy0999976>79ypaaapy00y77999yyy09yyyew,4:-:47-:3796975444644477974>4#46336677976::77644qw",
"7759e99e0000ada0979975690aapppa07yyyyyyyyy99yyye11q::-4:-:34776744444446769764>44465779yy073446446q8",
"7479e09500990yayy997959900ppppy05yppdaaaayyyyyy8:11:444:-:6666774->44496559866<-444679yyyy944475441e",
"46779953999yyayyy90999y99990pay00yypppaddayyyyy<;;::44:447666664-:-<46654>9966<<::4679yyyyy946444414",
"4q7757465e59eypyep9yye096690yp090yyypyyaayeyyyq:%$&-44687788776646<4999766996>>44687eyyyyyyy76666:;;",
"=:q6<<=OO;$O;:<><:;,;*;*ooO;=::;-:::16q16<:;1<:=%;%&==;:;;:;;;=*$=*&=,,,,=,,,=**=*:1wtkksitseqqq1;&&",
"11wwrr2<11w112w11211221;$$;122122giriurrr22uurr22r2rrrwwrutrrr1122122ruuu222222r2rwulgksgitstq6qwr21",
"r<-:8wqgkkxllcxllllkglhr,12gghkxxcccnncxxllcnnxgggxxmcxxbxmnmcxxkghlxbnnzxxhkcbbxcccseee98786::-qgll",
"---#O.OO=#-----#:--#O-<turt6<#->-:---------#-4:OO*::6464666433:--#=:<446esbhw4466899ee9097:664:-:3:-",
"--OOOOOO-#----#O-:-OO-:<,,<>:----##-##--#-#---=OO*:47778e96633=:-#O-:3-><8gt>66667999eee94:666:-::3:",
"--=OO#OO-3=-#+O##--#O--:,,<----#OOOOOO#--OOO+--OO-48970y99743O=3=-O-->4--6t6669669799e964:::-:::::::",
"33=OO--O-3--#OO++-=+O#-=,,<<-#----*O-=:--+::------:70y9e96663O-34-#->4-#::1w677466:67964::----3:4444",
"4:-::34*#3--##O.O#OO+##:,,>>-#--#-----:-:-------::58989987963--:464-->-O-<t86>4>43366644--3=O---6676",
"3:--:-:-##--##OOO#OO--O=,=<>->-:###----3:::--:>--379999y09944:44484>--#O:<r64>4>4:33446643#3---47766",
"444:-:::---#OOOO+OO=--O=,:<-#----#------44>-<--<336990ee99977897444<-::::6w8433::::::4676----=-46764",
"6333-::4-=---=OO+OOO=#O-;<<+---+O-#------<-:-----667eey99994799e9<--4-4448r7--:::::44497::---3:44664",
"644--4----::3---#=++O--=;;<:---OO----3--3--:-<--33699ey979978999966444446qwq33--:--466774:-333666666",
"63-------=-3:-4:--:--#-:;=::---+O------#4-4:<----33599e997779999999444--<6w3=-------4:44::::34567676",
"4-::-:4---334-46<4--OOO=&&:-:--+O#------:-43443---346699997977999999e74-:<1<-O--476--::::--446678796",
"4-::::3:3-333-4464:-+--=&$=--#---:-:---:>344444----433-67999999e99999944:<16----666::4:::::477667766",
"44::::44---:344444444-O*$o$=#<=-:4:3:--:444444--#-----:346799e09e999996<:;&;=*--66466733:66q76777766",
"<::-::-=O=-=-*-=-;=#=+$o  o$+**--=:=--=-=:::::->#O#OO*-:44379e9e9999w66<;$$&==--:;::6:==:66w161<:,,:",
",;;<;,,;;;;;;&&;;&&&$&;;,,,;=&;:;;;&&;;&;;,1<,;%%=<11:<1<qwwttitiitut121211,;;;;;,;,;;;&:111211111,;",
"gxbnxbxxjjjlghhhglghghhjgggljjjxxxlllxxxxxnxnmg1%&111,11rggrttggggkxmmmnxxjgggxxxjghxxxxccxcmmmmxggg",
"lZzzzszdysyt8weweeqweeetteeteyetwweeeewttpkdzzcg211::::4wt866q89eeessdssettwqetwwqw66wrtwwetskssklxx",
"9yyyyyyyyy9637446766467997667w533463436567yy97ylgw3::64::4-44679ee99eee784-::::;::::::434:::66768qgi",
"9eyyyyyy0yy079776664477797563-3344-3:3-33657879exg64664::4::46799y999997643-4::::::--46644:4666636w1",
"60yyyyyy0000776776<46577764:---34-33:-:46656459tgt7768644:4::4469ee97676666::::::::3485644::467646w1",
"69yyyy000ye076376676667963:::-34-433:---3676679ywq7677664444::446e7874346644:::::::347786:::4664:<1<",
"670ye0yye0y94434644643633337434544363---3677679ewt577e664444464444444--:44444::::----46444-::644:61<",
"68770yye099546343363446433:333334-4-#>-#46766797tw699976446476734:--33OO::-:>>>+O-*-::444:--::44::1,",
"9979790y077<46-3367466643333O3334-3344-#>5675698ew69e066444466634>---:-O=---<>-OO-O=:::4::---::-*=,<",
"999eee0097574433477766663344333333-3-4<>46675866ww999e97q:466663<>>O-:=O----:::+#----::4-OO--:-OO-1t",
"9e0y0099064643336776767633633-33343-#-##>4997668ww796997744644::-<<+-#-#--:44>:-#=#--:-4-O-:3=OOOO1w",
"790e0y09967976336766763:-3333-333#--##++#-47665quw995777943---:3>44-#---=:-476>:------:-=#=--OOOO$<q",
"69eyyy097677756667676443-3333--34>4-#4-:-499979etw7977667433-*-:>-<:#---<<<5664>-:::--::#=OOO-#OO*;1",
"690yyyy097676666677967744:#33=-#+---44644799959yrw69976644-.-.=3>--:---->4<9766<----::::--===-##O*;6",
"4600yeye7766766667777775443-33-3#4>45696679099ewq<q66776443-.*-:<4->64<<466666664<3---<44:-3-3=#--;<",
"--qqe7q7q33--:::36q63:3;***=;#=-**&=-::64:6q<<4<,,,,:<<:::=ooo=:<<<:<<<<<<<<<<666<>;=:-:<<>;***===;=",
"&-:;:;;;&&$$X$o$o%&&%$$$    X   X   X$$&**&;;;,,qr2,,,,,;;$ XXX&&&=&=;,,,,,,,,;;,=$$o$$&$$&$o X$*,1,",
"xcbbcccbclgkgkgggjbxjhg1%$;wrruiurrrtgggggxxxxxlxxbbmbbxxxgurugjxjjxhbbnbjuglbxbbjxhhhhxhhhhghgghbjx",
"AAAAAAAAAzkttztkzzzzzzxsw11qwwwwwqqwwwe7ttkstkksskzlkkkssittwwetsisiszxvnnmbnAAAvzzzsssfzzzsslzsnAAA",
"ZVyVZyyVVy090000yyyyeyys2113--O#O-*33.33:46436667w977666443:343465999y9ypzgkzaddfdap0p0ppp09yp0pVCCC",
"VVZyyVyVyy0770000y0yyyye1,<:-#OO*33..3#33443366667776666643:4669e9yyeyeeesttdaddCCdpp0yppppppyypdCCC",
"VVVyVVyyVy0079000yy00y0q,,<<--OO.3.+-.O*364336669e9e7667753:6<47yyyyyyyyeeuwfdVCCCdappppppppppapadNC",
"VVVVyVVNyyy0000000000097,&::33=-33+..*O*3644-3667000777797464449yyee9069esutsdCZCCCdaappyppaaaaaayVC",
"VZZVMyyMyyyyy0y007700097;;:-33:-3.OO.OOO-433:36690y07779997666679995y9669iuwddCVZCdVaappyyppddddayVV",
"VVVyyyyyyyyyMyy076070y0w;;:-33:-++O#3##.-343-:369009777999996666679799856eutfdVdVddappppyyyaddaddadV",
"yVyMyy00Myyyyyyy99079008:;:--33-3.#+-#+#3:3--3477997777779999w779977975768rrsapppppapypppyppppypyyad",
"yyyy0000yMyyyVyy9000000<;;-----O3333:-O#--3-467999777777799900e99996668998r2sp0pppppppappppdapyyyyyy",
"yyyy0070yVyyyyyy0000009q;;=33;-O--:-:-O-3:33699999977677799909999p977669992rsp0pppaaddCVdapyayyay990",
"yyy0yy00yy0yyyyyyyyy0096;;O---::-33-----::6999999999977799999999p9ye44479tuusdpypadCCVVdaaapyddpyyy0",
"y0yyyy0yy00yyyyyyyyyyyy7;;::3-3333--##--33q000999999666w90997799p9e9>4>47iiiffaaadCCVddaaaaadaaayayy",
"yyyyyyyy00yyyyVyyyyy00y9:;:-3--333:#OOO-:460y0ee0ee99970y099999007p9><-47suusCVddddCVadaappddaaaaday",
"yyyyey0000yyyyyyZZyyy007;;;::---::-OOOO;:-49yeyeyeyyy97yye9999eee9984>::8w1wtsddddfCCaaappaddpadddaa",
"ty0wey09weyysytyyyddt:1q1;::----4:--O*oo*$::11eyyeeeteq6q,<1<111w<,,=$**,111,w1wwpfddaaspppaddddaaty",
":&&;1wr1qqwwietrwwrwrwwrr211:;<:<w1,=;,122uuigggg11wglgggggghgghgguu2r2ughxlhggguuuutiiruriiiigiitw1",
"qwrwq16<6wqwqw44<;<wglgkkuw,;-:::::=*:rlgxcxcxlkgrwgzZcSFGGGGFGGFFDDnnDmFGGFGGFFDxsptusisttsssirtttt",
"gtw4-----+-336-+:--*3:--OO------::--+OOO*--:447esuusapyyaCCCCCCCCCCapypaVCZCCdVdadpyypddaaaddapyyyyi",
"r<:---3.-=O--3.O*---3:--O3*--:--3644-OOO--:-4677trrsapppdCCCZCCCCCddppaaaaaaadaaaaapypddddCVfaayyyys",
"1=::3-3------OO----:3::-O3--:-=-37773-=O=--:46769wwiapppdCZCCCCCCVaaaaaappyypapapyyyypddCCZZZdayyyye",
"q:333--333.--3--::-333:---3-:--3376453--#3-:466682rspaadCCZCCCVdCddddappppe99yypyyyyyddNCCCZZCfayeye",
"2::34::333-=--+-333333333---3--345667774----446662rsapadCCCCCddddapdVdappy97yyydapypadCCCCCZZZCay998",
"1:3333::333---333:33333333#3-3434446477633-::446qrwsadddCCCCCaaaappaaaap0969yyaaaaypdddCCfZZCddye958",
"1::5763-333=O----:3+3.33--O--3-43444444443:44468etrsddCCCCCCappyypppppp0y9990ppaayyyaddVVVZZCday99y7",
"1:-3654---3:------334..3-=+OO*-::443:344:4446697errsdCZZdCdaayyy90yppppypyyyy9yyyyyypaaVCCCCCday7999",
"13:::33--33-----=-.+3.+3.--+*----4474:4:44434777tuuddCZCCVpypy9yyyppppppp00p000ppyy00paddddddday00ye",
"134;:3:----3--3O:3.O.3...3..#3#-:447666::::46666etusddCCCdppyyeyyyyp0yppppyyppppppyyypyypaaayy0900ye",
"1:3434:---+3-.3+33++#.3.*O*---3--3447664:4444766qtrsdpaCZVdayyyyaapppapyppypppppayyyppaaayyp0y0900ye",
"q:3433:---++--3O34.+.-.-.+*---3=-::6777686744677eurpddpaCVapyeyypappadapypyaapyyypypyaaayyyy999700yy",
",:4333----::3-:---OOO-OOOO--:--=<-4568486e7776679iusddapddape9paaadadVayyyypayye990yypppypyye799y0ye",
";=:::--:-::43:-:3343:33==:333333466664446756666q11widCdaadapyyypdaaddddyaaaddayy0ypppddpppppey008e6:",
"&$&*o$oXo*&*O  $=&**o=oX X$&=*==;:<<<,=*,,<<<;;<,<,1rw81ww81tut1qwisssittw,1<<:;=;;<<<<<<<,<=*=-:<;=",
"uw22,;;&&&;,$  $;1,,,,&&%&;,11,112222<;;11222rrrughuuuruuurrir21,2uiihggggr21111,,1222r11,,,,;;,121r",
"xbxbxhuugggg2&&,rjighgggrgjjxbnnnnnnbg2wggnmmSmmmmmmSDSnnDmnksiurttypsszADSmccxxlxbnnnmjgrghhgggxxxc",
"w66744:==3:4q2,2<4-=<3<44467w0yeeeeekjhglckdpadpppffdpssppddppsirteyppyaffpe6786<669e8ilxgt8<<-:47eq",
"4:443:3.3.*-;;;;=O:-364:4367990999999siuiyyyyyyy9pp999999epppyprriy9yyypdaye646:<669766euw4-4-:-3663",
"6444333+3--*-;=&=O3-333333667999979yyeursyyyyyppp9987796999999wrree9eyypapy966486669779eww464::33336",
"3:433----.33-O$--3=--3333:4677999799yerreyyyyyppp9966996669999errq78599yapy95866766ee79erq6364-43:-6",
";43:-:333-.4-&,<--:----33:34799999797srrspayyypappe90996999999qiue63899ypape7677785eyyyeiq446644:336",
"344:333-.3---;<6-3----.33:44699995599ttrepayyyayppy9p00999y9e9ehi8-6679eyyyy785996eyyaptie6644444-34",
"34:4:33*----;;,q3:-----33:6657979999estwipaayyayppppap0990ypy99it444466790yy9777eeeyppppgu764484:--6",
"333:-3--=3-:<2,63-3333.O:44667999999yiurpppyyyyy0adddNMppppppe6ww56666666869e9799eyyaaypgsy764856-66",
"333----3:3:31q263---4333:466690099999prrippyyyyaa0ppaNMapypp099tq676585e76979yeyeyyyyayplsy986646346",
"333::347776672;:3+--3.O-:366990999999errppyyyyyyyyppdNNappypy96rq665566666770yyyyyyyyyytkee977666333",
"44:::4709099q,;;333.3.*-:34409999999eerwiyyyyyyyyypaMBNdppppy98rq5e966--479eyyyyyyyyyyyygw8746643-33",
"466:46709979q,,;-OOO--::433479999999e8w2tyyyeyyyyapaNBNpyyyyee9rq5776--*69eeyyyyyyyyyyyttw586696-:66",
"643446777776:;&:=-=O-34767479099999eew1<weyeeyyyaaadNNMapypyee61w77643--365eyyyyyyyyyaew1<444658-463",
":-:::::44:4:&$ooo=:**-:::4:4q6q66q6q<1;;:6<6qwq7q6tyappeeqeeq6<,,<<<-==$*--:qweeq8ewet<<;&::::::::-*",
"o&$$&$$*;&&&;;&$oX  .$*$$&&=;;::;;::1121;;;;:,:::;<<66q<,<,,<,,,;<;;%$ $$$%;:<<<1,<11<;<,;=&&$$%%;$$"
};
