/* XPM */
static char *CR100[] = {
/* columns rows colors chars-per-pixel */
"83 50 212 2 ",
"   c #1B1B1D",
".  c #1E1E21",
"X  c #232325",
"o  c #272629",
"O  c #2B2B2C",
"+  c #27282A",
"@  c #2F2F31",
"#  c #323234",
"$  c #363639",
"%  c #3B3B3D",
"&  c #37383B",
"*  c #2F3033",
"=  c #7D1D1E",
"-  c #7D3335",
";  c #3E3E41",
":  c #071363",
">  c #293470",
",  c #3F4042",
"<  c #424245",
"1  c #464649",
"2  c #4A4A4D",
"3  c #47484A",
"4  c #4E4E51",
"5  c #4F5053",
"6  c #525355",
"7  c #565659",
"8  c #5A5A5D",
"9  c #57585B",
"0  c #775356",
"q  c #5E5E61",
"w  c #4C517A",
"e  c #7B5B60",
"r  c #5F6062",
"t  c #626265",
"y  c #656668",
"u  c #67686A",
"i  c #6A6B6D",
"p  c #6E6E71",
"a  c #696F78",
"s  c #6E7074",
"d  c #6C727B",
"f  c #727275",
"g  c #757679",
"h  c #7A7A7D",
"j  c #78787A",
"k  c #78696E",
"l  c #951313",
"z  c #8E1111",
"x  c #A80C0D",
"c  c #B01313",
"v  c #9B1F20",
"b  c #843535",
"n  c #8A3D3D",
"m  c #932727",
"M  c #B72324",
"N  c #A13E3F",
"B  c #BF3839",
"V  c #BE3738",
"C  c #C23C3D",
"Z  c #CF3031",
"A  c #CF3435",
"S  c #CC1011",
"D  c #C43F40",
"F  c #D23F40",
"G  c #8F4243",
"H  c #924546",
"J  c #964B4B",
"K  c #994648",
"L  c #9B5151",
"P  c #93575A",
"I  c #9B4F50",
"U  c #A35959",
"Y  c #B75A5C",
"T  c #AE494A",
"R  c #BD5E60",
"E  c #AB5F60",
"W  c #9B6E72",
"Q  c #9B7679",
"!  c #AE6363",
"~  c #A26D6F",
"^  c #B66668",
"/  c #B4787A",
"(  c #C64344",
")  c #C84647",
"_  c #C84748",
"`  c #C44849",
"'  c #D15253",
"]  c #C76B6D",
"[  c #C46769",
"{  c #DD6B6D",
"}  c #CC6F72",
"|  c #CE7173",
" . c #CE7C7D",
".. c #D37678",
"X. c #D6797B",
"o. c #E57C7E",
"O. c #25398D",
"+. c #285DBA",
"@. c #3B6CBD",
"#. c #264DAB",
"$. c #4A4682",
"%. c #747B84",
"&. c #7D7E81",
"*. c #767E88",
"=. c #707786",
"-. c #616A8E",
";. c #536EB1",
":. c #1F7ADC",
">. c #297EDB",
",. c #617FC3",
"<. c #507EC9",
"1. c #807F82",
"2. c #D97D80",
"3. c #7F8084",
"4. c #79818C",
"5. c #7A829A",
"6. c #2584E3",
"7. c #5192DB",
"8. c #559BE3",
"9. c #818285",
"0. c #858689",
"q. c #8A8A8D",
"w. c #84888E",
"e. c #8D8E91",
"r. c #838890",
"t. c #8F9095",
"y. c #8F9399",
"u. c #929396",
"i. c #93959A",
"p. c #97999E",
"a. c #999A9E",
"s. c #91898C",
"d. c #AE8B8E",
"f. c #A98589",
"g. c #AE8D90",
"h. c #B18F91",
"j. c #B59496",
"k. c #B8989A",
"l. c #B08E91",
"z. c #9C9DA2",
"x. c #999EA9",
"c. c #838DB1",
"v. c #BE9FA1",
"b. c #A29EA1",
"n. c #9EA1A6",
"m. c #9DA2AB",
"M. c #A1A2A6",
"N. c #A3A5AB",
"B. c #A6A8AE",
"V. c #A9AAAE",
"C. c #A9A5A9",
"Z. c #A7AAB1",
"A. c #ABADB2",
"S. c #A5ACBF",
"D. c #B8AFB2",
"F. c #AFB0B5",
"G. c #ADB1B9",
"H. c #B1B2B6",
"J. c #B4B5BA",
"K. c #B7B9BD",
"L. c #B9BABE",
"P. c #B2A9AD",
"I. c #DD8284",
"U. c #DA9799",
"Y. c #CB8E90",
"T. c #E28A8B",
"R. c #E68F91",
"E. c #EA9394",
"W. c #C79FA1",
"Q. c #C3A3A4",
"!. c #CAAAAC",
"~. c #CFB5B7",
"^. c #D7BABA",
"/. c #D3B5B5",
"(. c #D6A8A9",
"). c #E0B3B4",
"_. c #869BC2",
"`. c #B7BAC0",
"'. c #BBBDC1",
"]. c #AFBFDF",
"[. c #99B6DA",
"{. c #DCBFC0",
"}. c #BFC0C4",
"|. c #AAC2E3",
" X c #C1C2C6",
".X c #C4C5CA",
"XX c #C7C8CC",
"oX c #C9CACE",
"OX c #D7C6C9",
"+X c #CCCDD1",
"@X c #D6CFD1",
"#X c #CFD0D4",
"$X c #CCD1D9",
"%X c #D1D2D5",
"&X c #D5D6D9",
"*X c #D7D8DB",
"=X c #DADBDD",
"-X c #E7D4D5",
";X c #DDDEE1",
":X c #DFE0E2",
">X c #E2E3E5",
",X c #E6E7E9",
"<X c #E7E8EA",
"1X c #EAEBEC",
"2X c #E9E6E7",
"3X c #EEEFF0",
"4X c #EFF0F1",
"5X c #F3F4F5",
"6X c #F6F7F8",
"7X c #F7F8F9",
"8X c #FCFDFE",
"9X c #FAE6E6",
/* pixels */
"8X,XL.<X8XL.%X8X#X'.8X>XL.1X8XK.*X8XoX}.8X>XK.1X8XL.*X8XoX X8X:XL.5X5XL.=X8X.X.X8X=X'.6X5XK.:X8X.XXX8X=XL.6X4XK.>X8X XoX8X*XL.8X1XL.>X8X'.+X8X&XL.8X<XL.,X8X'.#X8X#X'.",
"<X:X#X>X,X#X*X,X*X%X<X:X%X>X,X#X*X<X*X%X<X=X#X>X>X#X=X<X&X%X<X=X#X>X,X#X=X<X&X&X<X=X%X>X>X%X=X<X%X&X<X=X%X>X>X#X=X<X%X&X<X=X#X,X>X%X:X,X%X*X,X*X#X,X:X%X:X<X#X*X<X*X#X",
"L.%X8X%X'.8X,XL.<X8XL.%X8XoX'.8X>XL.1X8XL.*X8XoX X8X>XK.4X6XL.=X8XXX.X8X=XK.5X5XL.;X8X X.X8X=XL.5X5XL.:X8X XoX8X*XL.8X1XL.>X8X'.oX8X%XL.8X1XL.,X8XL.oX8X%X'.8X<X'.<X8X",
"<X;X%X:X<X%X*X2X*X%X<X:X%X>X<X%X=X<X&X%X<X:X#X>X,X%X=X<X&X%X,X;X%X>X>X#X=X<X&X&X<X=X%X,X>X%X;X<X%X&X<X=X#X,X>X#X=X<X%X*X,X*X%X,X>X%X:X<X%X*X<X=X%X,X>X%X:X<X#X*X<X*X#X",
"8X,XL.<X8XL.%X8XoXL.8X,XL.<X8XL.&X8XoX X8X>XL.1X6XL.*X8XoX.X8X:XL.4X5X'.=X8X.X.X8X=X'.5X5XL.;X8X.XoX8X=XL.6X1X'.:X8X XoX8X*XL.8X1XL.,X8X}.#X8X%X'.8X<X'.,X8X'.#X8X#X'.",
"L.%X8X%X'.8X,X'.<X8XL.&X8X%X'.8X>XL.1X7XL.*X8XoX X8X:X'.1X6XL.=X8XXX.X8X:X'.5X5X'.:X8X.X.X8X=X'.5X4XL.>X8X XoX8X*XL.6X1XL.>X8X}.oX8X&XL.6X<XL.2X8X'.%X8X%XL.8X<X'.<X8X",
"%X*X<X*X%X,X;X%X>X,X%X*X<X*X%X<X:X#X>X,X#X=X<X*X%X<X:X%X,X,X#X=X<X%X%X<X=X%X>X,X%X=X,X&X&X<X=X#X,X,X#X=X<X%X*X<X=X#X,X>X%X=X,X%X*X<X=X#X,X>X%X:X,X%X&X<X=X%X<X:X#X:X<X",
"8X<XL.<X8XL.%X8X#X'.8X,XL.<X8XL.&X8XoX}.8X>XL.3X7XK.*X8XXX}.8X:X`.5X6XL.=X8X.X X8X*XL.5X5XL.;X8X X.X8X*XL.6X3X'.:X8X XoX8X&XK.8X1XK.>X8X}.oX8X&XL.8X<XL.,X8X'.#X8X#X`.",
"%X*X,X*X#X<X:X#X:X,X%X*X<X*X%X<X=X%X>X,X+X=X<X*X#X,X;X@X>X>X@X;X<X&X%X<X:X%X2X>X#X=X<X&X%X<X=X#X,X>X#X;X<X%X*X<X=X#X,X>X+X=X<X%X*X<X*X%X,X>X%X=X<X%X*X<X*X%X<X>X#X:X<X",
"W.%X8X%X'.8X<X}.<X8XL.%X8X+X}.8X,XL.1X8XK.&X8XoX X8X:XK.3X6X'.*X8X.X.X8X=XL.3X5XL.=X8X XXX8X=X'.5X4XL.:X8X XoX8X*X'.8X1XK.>X8X X+X8X&XL.8X<XL.,X8X'.#X8X%XL.8X<X'.<X9X",
"x ' !.<X8XK.%X1X&X X8X,XL.<X8XL.%X8X+X X8X>XL.1X7XL.=X8XXX X8X;XL.5X6XL.=X8XXX X8X=XL.6X5XL.;X8X.XXX8X=XL.6X1XL.:X8X XoX8X&XL.8X1XL.,X8X'.oX8X&X'.8X1XL.,X8XL.&X9X{ c ",
"~.T c { -X#X4.x.4X<X>X%X X>X,X+X=X1X&X%X<X;X%X>X,X#X=X<X&X%X2X;X%X>X,X%X=X<X*X&X<X=X+X,X>X%X;X<X%X&X<X=X#X,X2X%X=X<X%X*X<X*X#X,X>X%X=X2X%X*X,XoX#X,X4XG.q.=XoX..c N W.",
"`.#X-XU c Y.d x.4X1X:X.XA.#X{.7X2XK.1X7XL.*X8XoX X8X;XK.4X6XL.*X8X.X X8X=XL.5X5XL.:X8X XXX8X=XL.6X5XL.=X8X XoX8X&XL.8X1XL.>X8X{.oX8X&XL.7X1XZ.`.&X,X4XG.%.W M N j.,X8X",
"<X:X%X>XOXP p x.4X<X=X}.C.C C T D V ( ) C D ) D B _ D C ( ) C C ) C C ) C C ( ( C D ) C C ) C C ) ) V ( ) C C ) C V ( ( V ( T V C ) C C ` ` f.`.&X,X4XG.%.P k.&X<X*X%X",
"8X,X'.<X7X}.0 W ,X<X=X}.m.~./.l.v.^.k.h./.Q.d.!./.d.Q.^.j.h.^.Q.d././.d.Q.^.k.j.^.Q.d././.l.Q.^.j.j.^.Q.l./.!.l.Q.^.h.k.^.k.d./.!.l.Q.^.j.k.P.{.@X2X1Xc.w >XL.oX6XoXJ.",
"'.%X8X%X}.7Xz l Y -X=X}.Z.}.{.8X2XL.1X7XL.*X8XoX X8X:XL.3X6X'.*X8X.X X8X=XL.5X5XL.=X8X X.X8X*XL.5X5XL.=X8X.XoX8X*X'.8X1X'.>X8X X+X8X%XL.5X>XV.L.&X:X,.#.: z.2X#XB.oX=X",
"%X*X2X=X%X,Xe Q ` Z OX}.B.&X%X<X;X%X>X,X+X=X,X&X&X<X;X@X:X,X#X=X<X&X%X<X=X@X,X>X@X;X2X%X&X2X=X%X,X>X%X=X,X%X&X<X*X+X2X=XXX*X=XXXXX&XoX'.%XoXA.L.$X7.+.5.w m.}.L.V.J.`.",
"8X,XL.9X8X'.- G ^.F Z !.B.1X8XK.&X8XoX'.8X>XL.3X5XL.*X8XXX}.8X:XL.4X5X'.=X8X.X.X8X;XK.5X5XK.=X7X'. X5X#XF.<X;XV.#X<XV.J.:XL.M.*XoXb.}.&Xz.V.A.J.7.6.|.;.> J.t.a.'.z.q.",
"' 2.(.OX%X1X= l M U.D M b.&X%X<X=X#X:X,X#X=X,X&X&X,X;X@X>X,X#X=X<X%X%X>X=X+X;X;XXX%X*XXXXX%XoX'.oXoXL. XXXL.K..XL.H.L.L.V.H.K.C.B.H.C.a.A.V.n.@.>.|.+.O.: r.n.l./ ^ ( ",
"K v x x M T k z. .S U.B v X.| E.T.| T.E.| I.E.X...E.I.| T.R.} 2.R...| T.2.] I.I.[ ..T.] ] I.} [ X.X.R } o.R [ X.[ Y | | Y ] ..Y R | R Y ] [ w +.[.>.<.[.=.- M x x l m ",
"8X,XK.+X{.Q d m.:XX.S  .J ! ^ L E ^ L L ^ E J E ! J U ! L J E L H U E G L U J H U J n L L n J L n n L H n K J b G J b n J n b K G - G H - G $.5.>.8.;XG.%.e 0 e q.f u ",
"<X:X+X;X>X+X%.m.;X*XX.c ~ #X&X'..X%X}.L.oX}.G.}. XH.H.}.A.P.L.H.M.H.H.n.N.F.z.z.V.n.a.C.M.u.a.M.u.u.a.u.q.a.u.0.e.u.9.0.e.0.&.q.0.h 9.0.g 4.5.+.7.;X;XG.%.f p p f i u ",
"F..X3X{.A.,X%.m.=X*XoX/ v F.b.&X'.a.}.oXi.V.XXz.u. XV.e.H.J.q.b.K.e.q.H.a.1.M.N.h u.M.1.1.M.q.j a.u.f 0.a.g g u.&.u q.0.u h q.u p 0.s r 3.j O.;.{.$X;XG.*.8 g i 7 u f ",
"oX XH.'. XP.%.m.=X&XoXL.Q A.H.M.M.A.b.a.B.b.a.n.b.u.a.b.u.e.a.u.q.u.u.0.q.u.0.9.e.0.&.0.0.h 1.9.h j 1.h f h j p j j p p g p u p i y u s r r -.J.}.$X;XS.*.q 9 8 r 9 7 ",
"XXJ.u.J.}.t.d m.&X%XXXK.n.N.F.9.u.A.q.9.C.u.&.u.b.j q.z.1.g a.0.p e.e.p &.u.f p s.j y 1.1.t f 9.t y h i 8 j f 8 u j 8 q f r 6 p u 6 t i 6 7 t.J..X#X%XG.*.r 2 4 8 2 1 ",
"q.i.D.u.0.F.%.m.%X#X.XJ.m.i.q.V.z.0.b.M.9.t.M.q.9.b.t.&.u.u.j 0.u.&.h u.9.f q.q.p 1.q.f f q.j p 1.1.i j 1.i p 1.f y j f t p j t t f y 8 f i q.H..X#X%XF.*.< 6 2 ; 2 6 ",
"a.C.K.M.y.t a m.%X#X.XJ.n.f f f f f f f f f f f f f f f f f f f f f f f f f f p f f f f f f f f f f f f f f f f f f f f f f p f f s s s p f i.H.}.+X#XF.*.5 0.0.1.h p ",
"p t 8 y g y d m.#XoX XG.n.h 0.r p 9.u r &.p 8 f g 7 t g q 8 f t 6 i i 4 8 i 6 5 y 8 2 r r 3 6 r 3 2 8 4 1 7 6 , 2 7 , 1 6 3 % 4 2 % 1 4 % % 0.F.}.XX#XA.*.1 < < 6 r i ",
"i g h f i j d B.oXXX}.G.z.u t s u t u u q r y 8 8 t q 7 q q 7 9 8 6 6 7 6 4 6 6 4 4 6 2 2 4 2 1 2 4 < 2 2 1 < 3 1 , 1 < ; < < % , < ; % , ; 3.A.'.XX+XG.*.$ $ $ # $ < ",
"q t h t 8 g d m.oX.X'.F.n.9 5 i q 4 r t 2 7 t 4 2 t 6 1 7 9 < 4 8 1 1 9 2 < 6 6 % 2 6 ; ; 4 1 $ 2 1 $ ; 2 $ $ 2 % # < ; # % < # # , # @ ; & &.A.`..XoXA.*.# $ # o @ $ ",
"f y 6 t i 4 d m.XX.X}.F.p.8 r 1 4 r 2 1 8 4 < 6 7 ; 2 7 < , 6 1 % 2 2 % < 2 % % 2 ; $ 1 < $ ; 1 $ $ < % # % ; O $ ; @ # % # O % $ O # $ + @ 3.A.`..XoXS.*.$ o + # o o ",
"8 9 6 7 7 4 d m..X.XL.F.p.5 5 2 2 4 3 1 4 3 < 2 2 , < 2 < ; 1 < ; < < % ; , % % % % $ % % $ $ % # # $ $ # $ $ # # $ @ # # # O # @ @ @ # O O 3.A.L.}.XXF.&.@ o o o o o ",
"< 2 8 1 , 7 a m..X}.L.F.z.&.h 9.1.h h 1.%.&.&.&.&.&.&.&.h h h &.h h j h h j j h &.h &.&.h h h h h h j h &.h h h h h h h h h h h h h h j h j i.A.K. X.XA.*.# O o   o O ",
"2 1 , q 3.9 d m..X}.L.F.a.1 2 ; < 2 < ; 1 ; ; < < & ; < % ; < ; $ < < $ ; < $ $ ; % # ; ; # & ; $ $ ; $ # & & # $ & # # % # # & $ @ $ $ * # 3.V.K.'..XG.*.2 &.7 X . X ",
"2 r 0.f 4 & s Z..X}.L.V.i.% ; @ # % * O $ # @ # $ O @ $ @ + # @ O # # o @ # O O @ O o @ @ X o O X X O o X + + . + O . . O X . + o . X o . X %.B.K.'..XG.w.+ $ t 0.7 . ",
"q.g 4 % * % s x.3.i 6 3 < O o # @ o * # X O @ o X * + X O @ X o O X . O o . o o . X o . . o X . X X   X X . . X .   X .   . .     . .   . . X $ 4 9 i n.*.  X o $ u q.",
"2 % $ @ @ 1 j 3.t.y.t.y.y.y.t.i.u.u.i.u.u.u.u.i.i.i.i.i.u.u.u.i.i.i.i.i.u.i.i.i.p.i.i.i.i.i.i.i.i.i.i.i.i.i.i.i.i.i.i.i.u.u.i.y.y.y.y.y.y.y.y.i.y.y.y.r.%.< . .   X ; ",
"$ * o @ 9 t.t.n.m.n.N.n.n.m.N.m.C.N.N.B.B.B.B.B.A.B.B.B.A.Z.A.Z.A.A.G.A.F.A.F.F.A.G.G.A.G.G.A.G.A.G.A.A.A.Z.Z.Z.B.B.B.B.B.B.B.N.N.N.N.N.N.N.N.N.N.x.n.z.e.u.q   .     ",
"o O @ p t.i.N.m.N.B.B.B.Z.A.A.A.A.A.A.F.A.H.F.G.J.J.J.H.`.K.K.`.`.`.}.`.`.}.L.L.`.`.'.`.`.`.`.`.`.'.`.`.`.K.K.J.J.J.H.J.H.F.G.A.F.F.A.A.V.V.V.V.B.B.B.N.N.y.u.*.+   . ",
"X # 0.y.p.N.B.B.B.A.V.V.A.A.F.F.H.J.J.J.K.K.`.`.`.`.'.'.`.'.`.'.}.}.}.}.}.}.}.}. X.X X X X X}.}.'. X'.'.`.'.'.'.'.`.`.`.'.`.`.K.J.H.H.G.F.F.A.A.A.Z.B.B.B.N.z.y.u.; X ",
"2 i.i.n.B.B.B.V.V.F.F.G.H.H.J.J.K.K.L.'.'.'.'.'. X}. X'. XXX X.X}.}.oXXX.X.XoX.XXX.XoX.X.XXX.X.X.X.X.X.X.X.X X X'.{. X X'.}.L.L.K.L.J.K.J.J.H.H.F.F.F.V.B.B.N.n.i.z.9 ",
"a.a.n.B.B.B.V.V.F.H.H.H.K.K.K.L.'.'.'.}.}. X X.X X XXXXXXXXXXXXX+X+X+X+XoXoX#XoX#XoXoX#X+X+X+X+X+X+XXXXXoXXXoXXX}.}. X.X X X X}.}.L.K.L.K.K.J.J.H.F.F.F.Z.V.V.B.n.p.x.",
"z.n.N.B.V.V.F.F.H.J.H.K.K.K.L.'.'.'. X X X.X.X.XXXXXXXoX+X+X+X+X+X+X+X+XoX#XoX#X#X#X#X#X+X+X+X+X+X+X+X+X+X+XXXXX|.oX.X X.X.X X X X}.'.'.'.L.K.J.J.J.H.F.F.Z.V.V.B.x.z.",
"n.n.N.B.V.A.A.G.H.H.J.K.L.L.L.L.'. X X XXX.X.X.XXXXXoXoX+X+X+X+X+X+X+X+X#X#X#X#X#X#X#X#X#X+X$X+X+X+X+X+X+X+X+X+X%XoXXXXX.X.X.X X X X'.'.'.K.L.L.J.J.F.F.F.F.V.V.B.N.z.",
"z.n.N.N.B.V.A.F.G.H.H.K.J.K.L.L.'.`.{.'. X.X XXX.X.XXXoXoX+X+X+X+X+X+X+X+X+X+X$X#X#X#X#X+X#X+X+X+X+X+X+X+X+XoXoXoX.X.X.X.X.X X}. X'.'.'.'.K.K.J.H.H.H.F.A.V.B.N.N.z.z.",
"p.z.n.n.N.B.V.V.V.F.H.H.J.J.K.L.`.`.`.'.'. X X X.X.X.XXXXXoXoXoXoXoXoX$X+X+X+X+X+XoX+X+X+X+X+X+XoX+XXXXXoXXXXXXX.X.X.X.X X X}.}.'.'.'.K.K.J.H.H.H.G.A.A.V.B.N.N.M.z.z.",
"p.n.n.n.N.N.B.B.V.A.V.F.H.H.J.J.`.`.'.'.'.'.'. X X.X X.X.X.X.X.X}.+XoXoXXX+XoX+XoX+XoX+XoXoXoXXXXXXXXXXXXXXX.X.X X X X X}.'.'.'.K.K.K.J.J.H.H.H.A.A.V.B.B.N.N.n.z.z.z.",
"a.p.a.n.n.N.m.B.B.B.F.F.G.H.J.G.K.K.K.`.'.'.`.'.'.'.}. X}..X.X.XXX}.}.XX}.XX.X.X.X.X.X.X.X.X.X.X.X.X.X.X X.X X X X'.'.'.L.L.L.L.K.L.L.J.H.H.F.A.A.A.B.B.N.N.n.n.z.z.a.",
"z.z.z.n.n.n.N.N.B.B.B.A.A.A.H.H.J.J.J.J.K.K.L.L.L.L.L.'.'.'.'.'.}.'.}.'.}.}.}.}. X}.}.}.}.}.}.}.'.'.'.{.`.'.'.'.'.`.`.K.K.K.J.J.J.J.J.H.H.A.A.V.A.V.B.N.N.M.n.n.z.z.a.",
"z.z.z.n.n.n.N.N.B.B.V.B.A.A.A.F.F.H.H.H.J.H.J.J.K.K.K.L.K.L.L.'.L.'.L.'.L.L.'.L.'.'.'.'.L.'.L.L.`.`.`.`.`.`.`.`.`.K.K.J.J.J.J.H.H.H.H.F.F.A.A.V.B.B.N.N.N.n.n.n.z.z.z."
};
