/* XPM */
static char *CR10[] = {
/* columns rows colors chars-per-pixel */
"100 60 219 2 ",
"   c #1B1B1E",
".  c #171719",
"X  c #1E1E21",
"o  c #232325",
"O  c #262629",
"+  c #2B2B2C",
"@  c #2E2E30",
"#  c #333334",
"$  c #363639",
"%  c #3A3B3D",
"&  c #37383A",
"*  c #2F3032",
"=  c #3E3F41",
"-  c #071777",
";  c #1A266F",
":  c #2C3468",
">  c #62314E",
",  c #3F4042",
"<  c #424245",
"1  c #464649",
"2  c #47484A",
"3  c #4A4B4D",
"4  c #4E4E51",
"5  c #4F5053",
"6  c #525355",
"7  c #565659",
"8  c #57585A",
"9  c #5A5A5D",
"0  c #794D4F",
"q  c #5D5E61",
"w  c #575A60",
"e  c #4E5472",
"r  c #715E64",
"t  c #5F6062",
"y  c #5D6269",
"u  c #5D6378",
"i  c #616164",
"p  c #666669",
"a  c #66686B",
"s  c #6A6A6D",
"d  c #656B74",
"f  c #6D6E71",
"g  c #696F79",
"h  c #6F7073",
"j  c #6A7078",
"k  c #727275",
"l  c #757679",
"z  c #77787C",
"x  c #797A7E",
"c  c #70696E",
"v  c #850605",
"b  c #980707",
"n  c #871B1C",
"m  c #911617",
"M  c #A30909",
"N  c #A70809",
"B  c #B50B0B",
"V  c #B71415",
"C  c #852727",
"Z  c #862A2A",
"A  c #892D2D",
"S  c #892424",
"D  c #8B3536",
"F  c #923435",
"G  c #943A3B",
"H  c #993636",
"J  c #952222",
"K  c #AA3436",
"L  c #C80A0A",
"P  c #CC0F10",
"I  c #D22E30",
"U  c #9C4444",
"Y  c #8F4D50",
"T  c #A54B4B",
"R  c #A84E4F",
"E  c #BA4A4B",
"W  c #A75455",
"Q  c #B55355",
"!  c #A85D60",
"~  c #9E6769",
"^  c #826F74",
"/  c #AC6B6C",
"(  c #8B4A60",
")  c #C35455",
"_  c #CA5B5D",
"`  c #C65759",
"'  c #D34E4F",
"]  c #E45D5F",
"[  c #CF5E61",
"{  c #D75F60",
"}  c #C46566",
"|  c #D36365",
" . c #DC6A6C",
".. c #D46668",
"X. c #DB7677",
"o. c #E57C7D",
"O. c #E27576",
"+. c #0F3CA2",
"@. c #1759BF",
"#. c #3654A8",
"$. c #3A4686",
"%. c #7B7D81",
"&. c #717A98",
"*. c #415DB1",
"=. c #536DB1",
"-. c #556090",
";. c #105BC4",
":. c #1579DF",
">. c #3770C6",
",. c #137CE3",
"<. c #597FC0",
"1. c #827F81",
"2. c #AD7E81",
"3. c #E67F80",
"4. c #7F8084",
"5. c #7D8289",
"6. c #7788B1",
"7. c #3F87DA",
"8. c #378EE5",
"9. c #578DD5",
"0. c #5A9EE5",
"q. c #7EAEE1",
"w. c #6D92C9",
"e. c #838285",
"r. c #858689",
"t. c #8A8B8D",
"y. c #87888C",
"u. c #938588",
"i. c #8D8D91",
"p. c #868E99",
"a. c #878D98",
"s. c #8F9095",
"d. c #8A919C",
"f. c #919296",
"g. c #94969A",
"h. c #96989E",
"j. c #999A9E",
"k. c #B58E91",
"l. c #8F96A1",
"z. c #9097A1",
"x. c #9499A2",
"c. c #9B9DA2",
"v. c #9EA1A6",
"b. c #9DA1A9",
"n. c #A1A2A6",
"m. c #A3A5AB",
"M. c #A8A6AB",
"N. c #A6A8AE",
"B. c #A8AAAE",
"V. c #A9A0A3",
"C. c #BCA6A9",
"Z. c #BDA8AC",
"A. c #B7A4A7",
"S. c #A6AAB0",
"D. c #ABADB2",
"F. c #A1A5B0",
"G. c #AEB0B5",
"H. c #AFB2B8",
"J. c #B1B2B6",
"K. c #B4B5BA",
"L. c #B6B9BD",
"P. c #B9BABE",
"I. c #BBB4B8",
"U. c #B3ADB2",
"Y. c #D7888A",
"T. c #C9989A",
"R. c #C48587",
"E. c #E8888A",
"W. c #C8ADAF",
"Q. c #C7A5A7",
"!. c #C9AEB1",
"~. c #C7ADB1",
"^. c #C5B3B7",
"/. c #D3AEAE",
"(. c #94AED5",
"). c #B6BAC0",
"_. c #BCBDC1",
"`. c #B2B7C3",
"'. c #B6BDD3",
"]. c #93B6E1",
"[. c #C2BDC1",
"{. c #BFC0C4",
"}. c #BFC2C9",
"|. c #BEC5D6",
" X c #AFC2E2",
".X c #C1C2C6",
"XX c #C4C5CA",
"oX c #C7C8CC",
"OX c #C9CACE",
"+X c #CAC3C7",
"@X c #CCCDD1",
"#X c #C2C9DA",
"$X c #CFD0D4",
"%X c #C9D2DE",
"&X c #D2D2D5",
"*X c #D5D6D9",
"=X c #D7D8DC",
"-X c #DADADD",
";X c #DCD7D9",
":X c #D1CACD",
">X c #EBDBDC",
",X c #E7D3D4",
"<X c #F7D9DA",
"1X c #DEDEE1",
"2X c #CFD6E3",
"3X c #E2DEE0",
"4X c #DFE0E2",
"5X c #E2E3E5",
"6X c #E6E6E9",
"7X c #EAEAEC",
"8X c #E7E7E9",
"9X c #F9E5E6",
"0X c #FAEAEA",
"qX c #EEEFF1",
"wX c #EFF0F2",
"eX c #F3F4F6",
"rX c #F5F6F8",
"tX c #FBFCFC",
"yX c #F7F8F9",
/* pixels */
"tXtX_.P.tXtX_.P.tXtXP.P.tXtX_.P.tXtXP.P.tXtXP.P.tXtXP.P.tXtXP._.tXtXP.P.tXtXP.{.tXtX_.P.tXtXP.P.tXtX_._.tXtX_.P.tXtXP._.tXtX_._.tXtX_.P.tXtXP._.tXtX_.P.tXtXP.P.tXtXP.P.tXtXP._.tXtX_._.tXtX_.).tXtX_._.",
"tXtX_._.tXtX[._.tXtX.XP.tXtX_..XtXtX{.P.tXtX.XP.tXtX{..XtXtX.X_.tXtXP.{.tXtX_.{.tXtX_.{.tXtXP.{.tXtX_.}.tXtX_..XtXtX_._.tXtX_._.yXtX{._.tXtXP.{.tXtX{..XtXtX_.{.tXtXP.{.tXtXP..XtXyX{._.tXyX{.{.tXyX_._.",
"P..XtXtXP._.tXtX{._.tXtX_.{.tXtX_.{.tXtX.X.XyXtX{.{.yXtX[._.tXyX{.{.tXtX{.P.tXtX_._.tXtX}._.tXtX_._.tXtX.X_.tXtX_._.tXtX[._.tXtX{._.tXtX{.{.tXtXP.{.tXtX{.{.tXtXP.{.tXtXP..XtXtX_._.tXtX{.{.yXtX_.}.yXtX",
"P._.tXtX_._.tXtXP._.tXtX_._.tXtXP.{.tXtXP.P.tXtXP.P.tXtX_._.tXtXP._.tXtX_._.tXtX_._.tXtX_.P.tXtX_.P.tXtX_._.tXtX_._.tXtX_._.tXtXP.P.tXtXP.P.tXtXP.P.tXtXP._.tXtX{.P.tXtXP.P.tXtX_._.tXtX_._.tXtXL.{.tXtX",
"tXtXP.P.tXtXP._.tXtX_._.tXtX_.P.tXtXP.P.tXtXP._.tXtXP.P.tXtXP..XtXtXP.P.tXtXP._.tXtXP._.tXtXP.{.tXtX_._.tXtXP._.tXtX_.P.tXtX_._.tXtXP._.tXtX_.P.tXtXP..XtXtXP.{.tXtXP.P.tXtXP..XtXtX{._.tXtX_._.tXtX_._.",
"tXtX.XP.tXtX.X_.tXtX_.P.tXtX_._.tXtX_.{.tXtX_._.tXtX{.P.tXtXP.{.tXtX.X.XtXtXP.{.yXtX{._.tXtXP.[.tXtX_..XtXtXP..XtXtX_.{.tXtXP.{.tXtX_._.tXtX{.{.tXtXP.{.tXtX_._.tXtX.X.XtXtXP.{.yXyX{._.tXyX_._.tXtX_.}.",
"_..XyXtX.X_.tXtXP.{.tXtX_._.tXtX{.{.tXtX{._.tXtX{.{.tXtX{..XtXtX_.{.tXtX_._.tXtXP.{.tXtX.XP.tXtX_._.tXtX.X_.tXtX.X_.tXtX{.{.tXtX_._.tXtX_._.tXtXP.{.tXtXP.{.yXtXP..XtXtX_.P.tXtX{.{.yXtX{.{.tXtX_.{.yXtX",
"P._.tXtXP._.tXtXP._.tXtX_._.tXtX_._.tXtXP._.tXtXP.P.tXtXP.P.tXtX_.P.tXtX_.{.tXtX_._.tXtX{.P.tXtX_._.tXtX_.P.tXtXP.P.tXtXP.P.tXtX_._.tXtX_._.tXtX{._.tXtXP.{.tXtXP.P.tXtXP..XtXtXL._.tXtX_._.tXtX_._.tXtX",
"tXtX_.P.tXtX{.P.tXtXP.P.tXtX.XP.tXtXP.P.tXtX_._.tXtXP._.tXtX_._.tXtXP._.tXtXP._.tXtXP._.tXtXP._.tXtXP._.tXtXL._.tXtXP.[.tXtXP.{.tXtX_.P.tXtXP._.tXtX_._.tXtX[._.tXtXP._.tXtXP._.tXtX_.P.tXtX}._.tXtX_.).",
"tXtX.X{.tXtXP._.tXtX{._.tXtX.X_.tXtX{._.tXtX_.{.tXtX{.{.tXyX_._.tXtXP.}.tXtXP.{.tXtX_.{.tXtX_..XtXtXP._.tXtX_.{.tXtX_._.tXtX_.{.yXtX{._.tXtXP.{.yXtX_._.tXyX_._.tXtXP..XtXyX_._.tXtX{.[.tXyX{._.tXtX_._.",
"P..XtXtX{._.tXtX{.{.tXtXP.{.tXtX{.{.tXtX_._.tXtXP.{.tXtX.X_.tXyX.X_.tXtX{._.tXtX_.{.tXtXP.{.tXtX{._.tXtX_._.tXtX{._.tXtX{.{.tXtX_._.tXtXP.P.tXtX_.[.tXtX_._.yXtX.XP.tXtX_.{.tXtXP.{.tXyX_._.tXtX_._.yXtX",
"Y.^.tXtX_.P.tXtX_._.tXtX_.P.tXtX_.P.tXtX_._.tXtXP.P.tXtX_.P.tXtXP.P.tXtX{.P.tXtXP.P.tXtX{.P.tXtX_.P.tXtX_._.tXtXP._.tXtXP.P.tXtX{.P.tXtX{.{.tXtXP._.tXtX_._.tXtXP.{.tXtXP._.tXtXP.{.tXtX_.{.tXtX_._.tX<X",
"M ' Y.P.tXtXP.P.tXeX{.P.tXtXP.{.tXtX_.P.tXtX_._.tXtX{.P.tXtX_._.tXtXP.P.tXtXP..XtXtXP.{.tXtXP.{.tXtX_._.tXtX_._.tXtXP.{.tXtXP.{.tXtX{._.tXtX_._.tXtXP._.yXtX_._.tXtXP._.tXtXP.{.tXtX}._.tXtX{._.tX<X' V ",
"W.H N ' <XtX.Xv.x.}.wX6X7X7X_._.tXtX_.{.tXtX_.{.tXtX{.{.tXtX_.{.tXtX.XP.tXtXP..XtXtX{.P.tXtXP.{.tXtXP._.tXtX_._.tXtX{.{.tXtX_.{.yXtX_._.tXyX_._.tXtX_.{.yXyX_..XtXtX{._.tXtX{.OX7XwX=Xg.K.tX}.^.o.V m / ",
"P.P./.K N ' <Xh.a.}.wX7X1XOXL.&X_._.tXtX{.{.tXtX_.P.tXtX_._.tXtX_._.tXtX.X{.tXyX{.{.tXtX_._.tXtX.X.XtXtX{._.tXtX{.P.tXtX_._.tXtX[._.tXyX_..XyXtX_.{.tXtX[.[.yXyXP.[.tXtXK.J.oX-X8XqX=Xd.j ^.E.V m / 0XtX",
"_._.tXtXk.F m i a.}.wX6X1X$XL.^.W.W.9X9XW.W.9X9X!.W.9X9X!.!.9X9XW.W.9X9XW.W.9X9X!.W.9X9X!.W.9X9XW.!.9X9X~.W.9X9X!.!.9X9X!.W.9X9X!.!.9X9X!.!.9X9X!.W.9X9XW.!.9X9X!.!.9X9XZ.G..X-X8XqX=Xd.a n J T.I._.tXtX",
"tXtX_.P.tXtXk.r p.}.wX6X1X@XJ.~ M M N M M M M M M M M M M M N M N M M M M M M N M N M M M M M M M M M M N M M M M M M M M M M M M M M M M M N N M M M M N M M M M M M N K D.XX=X6X7X=Xl.f T.I.[.tXtXP.P.",
"tXtX{._.tXtX^.c ( k.7X6X-XOXK.m.>X>XZ.C.>X>XC.C.>X>XC.C.>X>XC.Z.>X>XC.Z.>X>XC.C.>X>XC.Z.>X>XC.W.>X>XA.C.>X>XC.C.>X>XC.C.>X>XZ.C.>X>XA.Z.>X>XC.C.>X>XC.Z.>X>XC.C.>X>XZ.C.:XD.oX=X5X7X|.-.e yXL.L.eXeXK.K.",
"{.{.tXtX{.{.tXW v K } 8X-XOXJ.XX_._.yXyX{..XyXyX_._.tXyX_._.tXyX{.P.tXyX{._.tXyX_._.tXyX_._.yXyX[..XtXyX.X_.tXtX{._.tXtX_._.tXtX[._.tXyX{._.yXyX_._.tXyX[.{.yXyX_._.eXrXG.D.XX*X5X(.=.- ; D.5X5XB.B.5X-X",
"_._.tXtX{.}.tX~ D / B [ ;XOXJ.oX_._.tXtXP._.tXtXP._.tXtX_._.tXtX_._.tXyX_._.tXtX_._.tXyX_._.tXyX_.P.tXtX_.P.tXtX_._.tXtX_._.tXtX_.[.tXtX_._.yXtXL.L.rXeXL.J.wXqXG.G.7X7XN.D..X*X].;.=.$.: v.*X&Xc.v.@X&X",
"tXtX_._.yXtX{.z ^ !.Y.L { ^.J.B.tXtX_.P.tXtXP.P.tXtX_._.tXtXP.[.tXtXP._.tXtXP._.tXtX_._.tXtXP._.tXtXP._.tXtXP.[.tXtXP.P.tXyXP.P.rXrXJ.K.qXqXD.J.6X6XB.D.3X4XB.M.-X=Xm.n.XXB.XXq.,.9.#X&.u +Xg.f..X.Xs.s.",
"0XtX_.}.tXyXP.Y v K Y.E.L ) J.G.tXyX_._.tXtX_._.yXyX_.[.tXyX[.P.tXtX{._.tXtX_.{.yXyX_._.yXyX[.[.tXtXP.P.eXtXL.P.eXeXJ.J.7X6XD.D.5X5XB.M.4X1Xn.V.*X*Xn.n.&X&Xj.j.OXOXh.g.P.J.w.:.0. X#.- ; I.t.t.K.J.t.u.",
"P I ] E.T./.rX~ n U B Y.Y.L K .X{._.yXtX_.{.tXyX[._.yXyX_.[.tXtX_._.tXyX{.P.yXrXP.P.rXrXP.K.wX7XJ.J.7X5XD.B.5X5XM.m.-X;Xm.m.*X*Xn.c.&X:Xc.j.oXoXg.g..X.Xf.f.[._.i.f.L.I.f.=.;.0. X;.#.$.; r.C.k.Q ) I P ",
"Y F J b N B J r a.^.` L X.R.b E | | o.3.| ..3.3.....3.3.....3.o...| 3.o.| [ o.o.| [ o.O.[ _ O.O._ _ O.O._ _  . .` _  . .) )  . .) )  . .Q ) ....) ) ....E ) | [ E E [ _ ( +.<.].,.>.'.p.s n V N b v S G ",
"tXtX[.I.,X/.~ s a.}.>X| L } / S W W G G R R G G R R G G T T G G T T F G T T F F U U F F U U F F U U A A G U A A G G Z A G G A Z G G Z S G G C C H G C Z F F C C F F S C > =.(.:.8.2X$Xl.d 0 0 0 u.u.a a ",
"tXtX[._.tXyX{.5.a._.-X;X[ B Q M.qX7XJ.J.8X8XG.B.4X4Xm.n.;X;Xn.n.&X&Xc.c.@X@Xg.g.oXoXj.g..X.Xi.f._.P.i.i.I.I.t.t.J.J.r.r.B.U.e.e.B.M.1.x V.n.x x c.c.l l h.g.k k f.f.h c i.6.@.7.%X1X@Xl.f r.i i e.e.i i ",
"L.P.eXeXK.K.qXs.p._.-X-X$X} M / m.M.-X-Xn.n.&X&Xc.c.$XOXj.j.oXoXg.g.{.{.f.i.[._.i.i.K.K.t.r.J.J.e.e.B.B.e.4.m.M.4.x m.n.x z c.j.l l j.j.h k g.f.h h i.i.f s t.t.a p r.r.e +.>.}.*X-X@Xl.g q x z 9 9 l l ",
"B.B.5X5Xm.N.1Xa.p._.-X;X$X.X! ~ j.j.OXOXg.g..X{.f.f.{.{.i.t.P.P.t.u.K.J.r.r.D.D.e.1.B.B.1.x n.n.x x n.c.l l c.c.k k h.g.f f f.f.s s t.i.p p t.r.p p e.e.i i 1.4.i q x x e #.`..X*X=XOXl.d 8 h h 6 6 f s ",
"-X*Xn.j.&X$Xh.z p._.=X*XOX{.G.u..XP.t.i.P.I.t.t.J.J.e.r.U.D.1.1.B.M.1.x M.V.x x n.n.k l j.j.k k g.g.f f f.i.f s t.t.p p t.u.i p 1.e.i i 1.1.q q 1.z 9 9 l l 8 7 k k 8 7 d N.P.oX&X=XOXh.g p 4 3 p p 3 3 ",
"+XXXf.f..X[.s.l p.L.*X$XoX_.G.g.D.J.e.e.B.B.1.1.M.m.x x n.n.l l j.j.k k j.f.k f f.f.s s i.t.s s t.r.p p e.e.i i 1.1.t t x x 9 9 x l 9 9 k k 8 8 f h 6 6 s s 6 6 s p 5 3 l m.L.oX$X*XoXz.d q 1 1 9 9 1 1 ",
"t.t.J.J.r.r.D.4.p.).*X$XoXL.S.v.x 4.n.n.x z j.j.l l g.g.k k f.f.k f i.i.s s t.r.p p r.1.p i 1.1.i t x x q q x l 9 9 l k 8 8 k h 8 7 f f 6 6 s p 6 4 s p 4 4 i i 3 3 t t i N.L..X$X*XoXl.d < 7 6 = = 6 6 ",
"4.e.J.P.n.n.t.t p._.$X$XXX_.S.x.i.i.i.i.i.i.i.i.t.t.i.i.t.t.i.i.t.i.i.i.i.t.i.i.i.i.i.i.t.i.i.t.t.t.i.i.i.i.i.i.i.t.i.t.t.t.i.i.i.t.i.i.i.t.t.t.t.t.t.t.t.t.t.t.t.t.t.t.s.N.L..XOX&XXXz.d 7 f.y.s 8 5 2 ",
"D.n.r.f t t 5 y d.L.$X@X}._.S.y.x l i t l l t q k k q q h k 9 9 f f 9 9 f f 8 8 s s 7 7 p p 6 7 p p 6 6 i i 5 5 i t 4 5 t t 3 3 9 9 3 3 9 9 3 3 9 8 2 2 7 7 2 2 6 6 2 2 s m.J.XXOX@XXXz.g , 4 w p 1.j.n.",
"9 i t s t.t.s a d.L.@XoX}.K.S.5.4.1.q q x x q 9 l l 9 8 k k 8 8 f f 6 6 s s 6 4 p p 4 3 i p 3 3 t t 2 2 t q 1 1 9 9 < 1 7 7 < < 7 7 , , 7 6 = % 6 5 % % 5 2 & % 2 2 $ $ i M.K.[.oX@XXXl.d , @ # 3 3 < 4 ",
"p i e.e.t y 4.h p.L.OXoX{.L.N.t.8 8 k k 7 7 f f 6 6 s s 5 5 a p 4 3 p p 4 3 t t 2 2 q 9 1 1 9 9 1 < 8 8 < < 7 7 % % 6 5 = % 5 4 % & 3 3 & & 3 3 $ $ 2 2 $ $ 1 1 $ # < < 6 m.J._.XX@X}.x.d @ & = + + $ % ",
"q 9 l l 8 8 k d p.L.oXXX{.K.N.y.5 5 s p 4 3 p p 3 2 i i 2 2 i 9 1 1 9 9 < < 8 8 < < 7 7 , , 6 6 = % 5 6 % % 3 3 % % 3 3 $ $ 2 3 $ & 1 1 # # < < # # < < @ @ = , @ @ = % 4 m.G._.XX@X}.x.d + $ $ O + $ $ ",
"k f 6 6 f s 5 y p.L.oX}._.J.N.z i i 2 2 q 9 1 < q 8 1 < 8 8 < < 8 6 = = 6 6 = % 6 5 % % 3 3 & & 2 2 & & 2 2 # $ 1 2 # # < < # # , < @ # = = @ @ % % + @ & % + + & & + + 7 b.J._.XXoX}.x.d # O O @ * o + ",
"p p 3 3 i t 3 y p._.oXXX{.J.N.z 9 8 < < 7 7 < = 7 6 = % 5 6 % % 4 4 % % 3 3 $ % 2 2 $ $ 2 1 $ $ < 1 # # < , # # = , * @ % = @ @ % % + + & % + + & $ + + $ # + O # # O O 6 m.G.P..XoX_.x.d + o o + @ o o ",
"2 2 q 9 < 1 8 y d.L.XX}._.H.m.s.k k 4.1.k k x x h h x ^ f h z x f f l l f f k k f s h k s f h h s s k k s s f f s s c f s s c c a c f f a p s s p p s s p p c s p p s s z m.G._..XOX_.x.d o + + o X + + ",
", , 7 6 , 2 s 9 p.K.XX}._.H.N.5.t i i t i i i i i i t p i q i i i t t t t i t t t i i t t t t y i t t t i i i i t t i i t i t t t t t i i i i y i i i i i i t i i i i i k n.G.L._.oX_.x.d 1 2 O     O O ",
"5 3 % 2 t.t.3 q d.L.XX{._.G.N.h 1 < # * , , @ + % = + @ % = @ + % % + + & & + + & & O O # $ O O # # O o * * o o @ @ o o + @ o o + + X X + + X X + + X X + O X X O O X   3 b.D.).[.XX_.x.g = z r.3 o     ",
"3 8 r.i.8 3 $ 7 z.L.}.}.L.G.v.f = = @ + % % @ + % & + + & & + + $ $ + + $ $ O O # # O O # # o O * * o o * @ o o + + o o + + X o + + X o O + X X O O X X + o X X O O X X 3 c.D.L._.XX_.F.d O @ 3 1.t.2   ",
"t.i.9 3 $ * % i 5.m.r.x p 5 5 , + + & $ + + $ $ + + # # + O # # O + @ # O o @ + O o @ @ o o @ + o o + + o o + + o o + + X o + O X X O O X X o o X X X o X   o O X . o o X # 2 9 a k c.d.a   o o # 4 1.f.",
"9 < , % + + & a 4.s.4.4.x x 4.4.x x 4.4.x %.1.1.x x %.%.x x %.1.x x x 1.x z 5.4.%.%.%.%.%.z 4.4.%.%.%.%.%.%.%.%.%.%.x x %.z 4.x %.%.%.%.%.%.%.%.%.%.%.%.z %.z %.%.%.%.%.z %.%.z %.%.y.y.f X o o .   % 6 ",
", & + + $ % k t.y.s.g.h.g.h.h.h.g.h.h.h.h.c.h.h.c.x.c.c.x.c.c.x.j.c.c.c.c.c.v.v.v.v.v.v.v.v.v.v.b.v.v.c.c.b.c.b.v.v.v.v.b.v.x.v.c.c.c.c.c.c.c.c.z.x.c.x.x.h.h.h.z.x.x.h.h.h.z.h.d.z.s.r.y.y.+ . X o . X ",
"# # o o < y.t.g.b.m.b.m.N.m.m.B.B.B.S.S.S.S.D.D.D.D.D.D.D.G.G.G.J.J.G.G.H.G.J.K.K.J.K.K.K.H.K.K.K.`.L.K.L.L.L.K.H.K.H.K.H.H.H.H.J.G.G.H.D.D.D.D.D.D.D.D.D.D.D.D.D.S.S.S.S.N.S.m.m.m.m.m.d.a.g.2 o X . . ",
"o o + 7 g.s.x.n.m.m.m.B.m.S.S.S.S.G.D.D.G.G.G.G.J.J.J.J.L.K.K.L.K.K.L.L.L.L.L._.)._.)._.{._.L._._._.)._._._.)._._._.P._.L.L.L.L.P.P.L.L.L.L.K.K.K.K.J.J.G.G.G.D.D.D.D.D.S.D.S.S.S.S.m.n.n.x.i.c.p   X o ",
"o o h h.s.v.m.N.N.S.S.D.S.S.D.S.G.G.G.J.J.J.K.L.L.).).).).).)._._._._._._.{.{.{.}.{.}.}.}.}.}.}.}.XX.XXX.X.X.X}.}.}..X.X}.{.{.{._._.)._.).)._.).).).).).L.K.K.J.J.J.J.D.D.D.D.D.D.S.S.S.S.m.c.a.c.4.# o ",
"& r.h.g.v.m.B.N.S.S.D.D.D.G.J.G.J.K.K.K.L.P.P.)._.)._._._.[.}._.[..X.X.XXXXXoX.XoX.XoX.XoXXXoXoXoXoXoXXXXXoXXXXXXXXXXXXXXXXXXXXX.XXX.X}..X{.}.{._.P.{.P._.L.L.L.K.K.J.J.J.J.J.J.D.D.D.B.S.B.B.v.g.c.g., ",
"h.h.j.n.N.m.N.B.D.D.D.G.J.J.K.L.K.L.L.).).)._._._..X.X.X.X.XXXoXXXXXoXXXoXoXoXoX@XoX@X@XOXOX@X@X@X@X@X@X@X@X@XOXOX@XOXOXOXOXoXoXoXoXoXXXoX.X.X.X.X.X.X{._._._.).L.L._.L.L.J.J.J.J.G.D.D.D.B.S.b.v.h.x.v.",
"h.v.n.B.m.B.B.D.D.G.H.K.K.J.L.L.L.P.)._._._..X.XXX.XXXXXXXXXoXoXOXOXOX@X@X@X@X@X@X@X@X@X@X@X@X@X@X@X@X@X@X@X@X@X@X@X@X@X@X@X@XOXOXOXOXOXoXoX.X.XXXXX.X.X.X.X_._._._._.L.P.L.K.K.K.J.G.G.D.S.S.B.S.b.h.h.",
"c.v.m.m.B.S.S.D.G.H.G.K.K.L.L.L.P.P._._.[..X.X.XXXXXXXXX.XoXoXoXOXOXoX@X@X@X@X@X@X@X@X@X@X@X@X@X$X$X$X@X@X$X@X@X@X@X@X@X@X@X@X@X@XOXOXOXoXoXoXoXXXXXXX.X.X.X.X_._._._.P.P.L.K.L.K.J.G.G.D.D.S.B.B.m.v.c.",
"v.v.m.m.S.S.D.D.G.J.J.J.K.L.L.P.P.P.P._._..X.X.XXXXXXXXXoXoXOXoXOXOX@X@X@X@X@X@X@X@X@X@X&X@X&X&X$X*X$X*X$X$X$X$X$X$X@X@X@X@X@X@X@X@X@XOXOXoXoXoXXXXXXX.X.X.X.X.X_._._.L.L.L.K.K.K.J.J.G.D.D.B.B.B.m.m.v.",
"c.v.v.v.m.B.B.D.B.D.J.J.J.K.J.L.L.P.P._._._..X.X.X.XXXXXXXXXXXoXoXOXOXOX@X@X@X@X@X@X@X@X@X@X@X@X@X@X$X@X$X@X@X@X@X@X@X@X@X@X@XOXOXOXOXoXoXXXXXXX.XXX.X.X.X.X_._._.L._.L.L.L.J.K.J.G.G.G.B.B.B.B.m.v.v.c.",
"c.c.c.v.n.m.S.S.D.D.D.G.J.J.K.K.K.P.P.P._.)._._._..X.X.X.XXXoXoXXXoXOXOXoXoX@XoX@X@X@X@X@X@X@X@X@X@X@X@X@X@X@X@X@X@XOXOXOXOXOXOXoXOXoXoXoXXXXXXX.X.X.X{.}._._._.P.L.L.K.J.K.J.J.J.D.D.B.B.B.B.m.v.v.c.c.",
"h.c.c.v.v.m.m.B.B.B.D.D.D.J.J.J.K.K.K.P.P.P.P._._._._..X.X.X.X.XXXXXoXXXoXoXoXoXoXoX@XoXOXOXOXOX@X@XOXOX@XoX@XoXOXOXOXOXOXOXOXXXoXXXXXXXXX.X.X{..X.X{._.P._.P.P.L.L.L.J.J.J.G.G.D.D.B.B.B.m.m.m.v.v.c.j.",
"h.c.c.c.n.n.n.m.m.B.B.S.D.D.G.G.J.K.K.K.P.P.P.P._.).)._._._.[..X}.XX.XoX.XoXoXXXXXXXoXoXXXOXOXoXOXOXOXOXOXoXoXoXXXXXoXoX.XoXoX.XXXXXXX.X.X.X{._._._._.[.P.L.P.L.L.J.J.J.J.J.D.D.D.B.B.B.m.b.v.v.c.c.c.j.",
"j.c.c.c.n.v.n.m.m.B.B.B.S.G.D.G.J.J.K.K.K.K.K.P.P.P.P.P._._._._._._..X[..X.X.X.X.XXXXX.X.XXXXXXX.XXX.X.X.XXX.XXXXXXX.XXX.X.X.X.X.X_._._._._._._.P.P.L.P.L.L.L.L.K.J.J.J.J.D.D.B.B.B.B.b.m.m.v.v.c.c.c.c.",
"j.c.c.v.n.v.v.m.N.N.N.B.D.S.D.D.D.J.J.J.J.K.K.K.K.L.L.L.).P.P.P._.)._._.)._._._._._._._._._.[._.}.}..X[.}._.[._._._._._._._._._._._.P._.P.L.P.P.L.K.L.J.J.K.J.K.J.J.J.D.D.D.D.B.B.B.m.m.m.m.v.v.c.c.c.c.",
"j.c.v.v.n.v.v.v.n.N.b.B.B.B.B.D.D.D.D.J.J.J.J.J.J.J.K.K.K.L.L.L.).).).P.P.).).).P.P.P.P.P._.)._.P.P._.).P._.).P.).).).).P.P.).).P.P.L.P.L.L.K.K.K.J.K.J.J.J.J.J.J.G.D.D.D.B.B.B.B.m.m.m.b.v.v.v.c.c.c.c."
};
